<svg width="118" height="33" viewBox="0 0 118 33" fill="none" xmlns="http://www.w3.org/2000/svg">
<path d="M5.664 32.24L6.048 29.696C7.52 29.568 8.592 29.376 9.264 29.12C9.936 28.832 10.368 28.32 10.56 27.584C10.752 26.848 10.848 25.712 10.848 24.176V4.016C9.216 4.048 7.936 4.128 7.008 4.256C6.08 4.384 5.376 4.64 4.896 5.024C4.448 5.408 4.112 6.016 3.888 6.848C3.696 7.648 3.52 8.752 3.36 10.16L0.336 10.4C0.464 9.376 0.56 8.32 0.624 7.232C0.72 6.144 0.8 5.072 0.864 4.016C0.928 2.96 0.976 2.016 1.008 1.184L1.488 0.751999L5.808 1.28H20.736L25.152 0.751999L25.632 1.184C25.664 2.08 25.696 3.072 25.728 4.16C25.792 5.216 25.872 6.272 25.968 7.328C26.064 8.352 26.16 9.296 26.256 10.16L23.232 10.4C23.04 8.928 22.832 7.776 22.608 6.944C22.384 6.112 22.048 5.504 21.6 5.12C21.184 4.704 20.544 4.432 19.68 4.304C18.816 4.176 17.632 4.08 16.128 4.016C16.032 5.04 15.936 6.416 15.84 8.144C15.776 9.872 15.712 11.776 15.648 13.856C15.616 15.904 15.568 18 15.504 20.144C15.472 22.288 15.456 24.288 15.456 26.144C15.456 27.328 15.664 28.176 16.08 28.688C16.496 29.168 17.184 29.408 18.144 29.408C19.008 29.408 19.872 29.36 20.736 29.264L20.88 29.504L20.448 32.192C19.712 32.128 18.848 32.08 17.856 32.048C16.896 32.048 15.968 32.032 15.072 32C14.176 32 13.44 32 12.864 32C12.32 32 11.632 32 10.8 32C9.968 32.032 9.088 32.064 8.16 32.096C7.264 32.16 6.432 32.208 5.664 32.24ZM33.1924 32.768C33.1924 32.768 33.0964 32.432 32.9044 31.76C32.7124 31.056 32.4404 30.128 32.0884 28.976C31.7684 27.824 31.4004 26.576 30.9844 25.232C30.6004 23.888 30.2004 22.528 29.7844 21.152C29.4004 19.776 29.0324 18.528 28.6804 17.408C28.3604 16.288 28.0884 15.408 27.8644 14.768C27.3524 13.168 26.3284 12.352 24.7924 12.32L24.6964 12.128L25.0324 10.064C25.0324 10.064 25.2884 10.064 25.8004 10.064C26.3124 10.064 26.8884 10.08 27.5284 10.112C28.1684 10.112 28.6964 10.112 29.1124 10.112C30.1364 10.112 31.0964 10.08 31.9924 10.016C32.9204 9.952 33.6724 9.904 34.2484 9.872C34.8244 9.808 35.1124 9.776 35.1124 9.776L35.2084 10.016L34.8724 12.08C33.8484 12.112 33.1604 12.224 32.8084 12.416C32.4884 12.576 32.3284 12.88 32.3284 13.328C32.3284 13.552 32.4084 14.048 32.5684 14.816C32.7604 15.584 32.9844 16.512 33.2404 17.6C33.5284 18.656 33.8164 19.744 34.1044 20.864C34.3924 21.984 34.6644 23.04 34.9204 24.032C35.2084 24.992 35.4324 25.792 35.5924 26.432C35.7524 27.04 35.8324 27.344 35.8324 27.344H36.1684C36.5524 26.352 36.9364 25.36 37.3204 24.368C37.7044 23.376 38.0564 22.4 38.3764 21.44C38.7284 20.48 39.0484 19.6 39.3364 18.8C39.6564 18 39.9284 17.28 40.1524 16.64C40.4084 15.968 40.6004 15.424 40.7284 15.008C40.4724 14.112 40.1204 13.456 39.6724 13.04C39.2564 12.592 38.5844 12.368 37.6564 12.368L37.5124 12.128L37.8484 10.064C37.8484 10.064 38.1044 10.064 38.6164 10.064C39.1284 10.064 39.7044 10.08 40.3444 10.112C40.9844 10.112 41.5124 10.112 41.9284 10.112C42.9524 10.112 43.9124 10.096 44.8084 10.064C45.7044 10 46.4404 9.952 47.0164 9.92C47.5924 9.856 47.8804 9.824 47.8804 9.824L47.9764 10.064L47.6404 12.128C46.5844 12.192 45.8964 12.304 45.5764 12.464C45.2564 12.592 45.0964 12.88 45.0964 13.328C45.0964 13.52 45.1764 14 45.3364 14.768C45.5284 15.536 45.7524 16.464 46.0084 17.552C46.2644 18.608 46.5364 19.712 46.8244 20.864C47.1444 21.984 47.4324 23.04 47.6884 24.032C47.9764 24.992 48.2004 25.792 48.3604 26.432C48.5204 27.04 48.6004 27.344 48.6004 27.344H48.9364C49.9604 24.656 50.8404 22.352 51.5764 20.432C52.3124 18.48 52.8724 16.912 53.2564 15.728C53.6724 14.544 53.8804 13.776 53.8804 13.424C53.8804 13.008 53.7524 12.72 53.4964 12.56C53.2404 12.4 52.7764 12.32 52.1044 12.32H50.5684L50.3764 12.032L50.6644 10.016C50.6644 10.016 50.9204 10.032 51.4324 10.064C51.9444 10.064 52.5684 10.08 53.3044 10.112C54.0724 10.112 54.8244 10.112 55.5604 10.112C56.1364 10.112 56.7444 10.112 57.3844 10.112C58.0244 10.08 58.5684 10.064 59.0164 10.064C59.4644 10.064 59.6884 10.064 59.6884 10.064L59.3044 12.32C58.6644 12.416 58.1684 12.672 57.8164 13.088C57.4644 13.472 57.0324 14.304 56.5204 15.584L50.1364 32L46.0564 32.768C46.0244 32.608 45.8804 32.096 45.6244 31.232C45.4004 30.336 45.0964 29.232 44.7124 27.92C44.3284 26.576 43.9284 25.184 43.5124 23.744C43.0964 22.272 42.6964 20.88 42.3124 19.568H41.9284L37.3684 32L33.1924 32.768ZM70.7801 32.576C68.6681 32.576 66.8281 32.128 65.2601 31.232C63.6921 30.336 62.4761 29.088 61.6121 27.488C60.7481 25.856 60.3161 23.952 60.3161 21.776C60.3161 20.08 60.6041 18.496 61.1801 17.024C61.7561 15.552 62.5401 14.256 63.5321 13.136C64.5561 12.016 65.7241 11.136 67.0361 10.496C68.3481 9.856 69.7561 9.536 71.2601 9.536C76.3161 9.536 78.8441 12.032 78.8441 17.024C78.8441 17.472 78.7961 17.936 78.7001 18.416C78.6361 18.896 78.5721 19.28 78.5081 19.568L77.9321 20.096H65.0681C65.0681 22.656 65.5801 24.672 66.6041 26.144C67.6281 27.616 69.0681 28.448 70.9241 28.64C72.8121 28.832 75.0201 28.352 77.5481 27.2L77.8361 27.344L78.5081 29.168C77.8361 29.648 77.0361 30.16 76.1081 30.704C75.2121 31.216 74.2841 31.648 73.3241 32C72.3961 32.384 71.5481 32.576 70.7801 32.576ZM65.1641 17.936L72.8921 17.552C73.3081 17.488 73.5801 17.392 73.7081 17.264C73.8681 17.104 73.9481 16.8 73.9481 16.352C73.9481 15.104 73.6441 14.16 73.0361 13.52C72.4281 12.88 71.5481 12.56 70.3961 12.56C69.0201 12.56 67.8521 13.04 66.8921 14C65.9641 14.928 65.3881 16.24 65.1641 17.936ZM92.577 32.576C90.465 32.576 88.625 32.128 87.057 31.232C85.489 30.336 84.273 29.088 83.409 27.488C82.545 25.856 82.113 23.952 82.113 21.776C82.113 20.08 82.401 18.496 82.977 17.024C83.553 15.552 84.337 14.256 85.329 13.136C86.353 12.016 87.521 11.136 88.833 10.496C90.145 9.856 91.553 9.536 93.057 9.536C98.113 9.536 100.641 12.032 100.641 17.024C100.641 17.472 100.593 17.936 100.497 18.416C100.433 18.896 100.369 19.28 100.305 19.568L99.729 20.096H86.865C86.865 22.656 87.377 24.672 88.401 26.144C89.425 27.616 90.865 28.448 92.721 28.64C94.609 28.832 96.817 28.352 99.345 27.2L99.633 27.344L100.305 29.168C99.633 29.648 98.833 30.16 97.905 30.704C97.009 31.216 96.081 31.648 95.121 32C94.193 32.384 93.345 32.576 92.577 32.576ZM86.961 17.936L94.689 17.552C95.105 17.488 95.377 17.392 95.505 17.264C95.665 17.104 95.745 16.8 95.745 16.352C95.745 15.104 95.441 14.16 94.833 13.52C94.225 12.88 93.345 12.56 92.193 12.56C90.817 12.56 89.649 13.04 88.689 14C87.761 14.928 87.185 16.24 86.961 17.936ZM112.31 32.576C110.102 32.576 108.502 32.128 107.51 31.232C106.55 30.304 106.07 28.8 106.07 26.72V15.392C106.07 14.496 105.878 13.872 105.494 13.52C105.142 13.168 104.438 12.976 103.382 12.944L103.094 12.608L103.334 10.784C104.23 10.336 105.094 9.856 105.926 9.344C106.758 8.8 107.494 8.288 108.134 7.808C108.806 7.296 109.318 6.88 109.67 6.56C110.054 6.24 110.246 6.08 110.246 6.08L111.398 6.56C111.398 6.56 111.35 6.896 111.254 7.568C111.158 8.24 111.046 9.2 110.918 10.448L117.35 10.304L117.542 10.448L117.062 13.328L110.726 13.184C110.63 14.624 110.55 16.288 110.486 18.176C110.422 20.064 110.39 22.16 110.39 24.464C110.39 25.968 110.646 27.056 111.158 27.728C111.702 28.368 112.598 28.688 113.846 28.688C114.582 28.688 115.27 28.56 115.91 28.304C116.582 28.016 116.918 27.872 116.918 27.872L117.446 29.264C117.446 29.264 117.238 29.44 116.822 29.792C116.438 30.112 115.942 30.496 115.334 30.944C114.758 31.36 114.182 31.728 113.606 32.048C113.062 32.4 112.63 32.576 112.31 32.576Z" fill="#0D6EFD"/>
</svg>
