<svg width="14" height="17" viewBox="0 0 14 17" fill="none" xmlns="http://www.w3.org/2000/svg">
<path d="M2.832 16.12L3.024 14.848C3.76 14.784 4.296 14.688 4.632 14.56C4.968 14.416 5.184 14.16 5.28 13.792C5.376 13.424 5.424 12.856 5.424 12.088V2.008C4.608 2.024 3.968 2.064 3.504 2.128C3.04 2.192 2.688 2.32 2.448 2.512C2.224 2.704 2.056 3.008 1.944 3.424C1.848 3.824 1.76 4.376 1.68 5.08L0.168 5.2C0.232 4.688 0.28 4.16 0.312 3.616C0.36 3.072 0.4 2.536 0.432 2.008C0.464 1.48 0.488 1.008 0.504 0.592L0.744 0.375999L2.904 0.639999H10.368L12.576 0.375999L12.816 0.592C12.832 1.04 12.848 1.536 12.864 2.08C12.896 2.608 12.936 3.136 12.984 3.664C13.032 4.176 13.08 4.648 13.128 5.08L11.616 5.2C11.52 4.464 11.416 3.888 11.304 3.472C11.192 3.056 11.024 2.752 10.8 2.56C10.592 2.352 10.272 2.216 9.84 2.152C9.408 2.088 8.816 2.04 8.064 2.008C8.016 2.52 7.968 3.208 7.92 4.072C7.888 4.936 7.856 5.888 7.824 6.928C7.808 7.952 7.784 9 7.752 10.072C7.736 11.144 7.728 12.144 7.728 13.072C7.728 13.664 7.832 14.088 8.04 14.344C8.248 14.584 8.592 14.704 9.072 14.704C9.504 14.704 9.936 14.68 10.368 14.632L10.44 14.752L10.224 16.096C9.856 16.064 9.424 16.04 8.928 16.024C8.448 16.024 7.984 16.016 7.536 16C7.088 16 6.72 16 6.432 16C6.16 16 5.816 16 5.4 16C4.984 16.016 4.544 16.032 4.08 16.048C3.632 16.08 3.216 16.104 2.832 16.12Z" fill="#0D6EFD"/>
</svg>
