<svg width="520" height="520" viewBox="0 0 520 520" fill="none" xmlns="http://www.w3.org/2000/svg">
<g filter="url(#filter0_d_1_3)">
<path d="M164 368C190.5 368 212 389.5 212 416V432L284.5 377.6C292.8 371.4 302.9 368 313.3 368H452C460.8 368 468 360.8 468 352V64C468 55.2 460.8 48 452 48H68C59.2 48 52 55.2 52 64V352C52 360.8 59.2 368 68 368H164ZM212 492L211.8 492.2L206.7 496L189.6 508.8C184.8 512.4 178.3 513 172.8 510.3C167.3 507.6 164 502.1 164 496V474.7V468.3V468V464V416H116H68C32.7 416 4 387.3 4 352V64C4 28.7 32.7 0 68 0H452C487.3 0 516 28.7 516 64V352C516 387.3 487.3 416 452 416H313.3L212 492Z" fill="#396AFE"/>
</g>
<defs>
<filter id="filter0_d_1_3" x="0" y="0" width="520" height="519.978" filterUnits="userSpaceOnUse" color-interpolation-filters="sRGB">
<feFlood flood-opacity="0" result="BackgroundImageFix"/>
<feColorMatrix in="SourceAlpha" type="matrix" values="0 0 0 0 0 0 0 0 0 0 0 0 0 0 0 0 0 0 127 0" result="hardAlpha"/>
<feOffset dy="4"/>
<feGaussianBlur stdDeviation="2"/>
<feComposite in2="hardAlpha" operator="out"/>
<feColorMatrix type="matrix" values="0 0 0 0 0 0 0 0 0 0 0 0 0 0 0 0 0 0 0.25 0"/>
<feBlend mode="normal" in2="BackgroundImageFix" result="effect1_dropShadow_1_3"/>
<feBlend mode="normal" in="SourceGraphic" in2="effect1_dropShadow_1_3" result="shape"/>
</filter>
</defs>
</svg>
